<svg xmlns="http://www.w3.org/2000/svg" viewBox="0 0 64 64">
  <rect width="64" height="64" rx="14" fill="#fff"/>
  <path d="M31 8c-12 0-21 8-21 20 0 11 8 18 19 18 4 0 8-1 11-3l-4-8c-2 1-4 2-7 2-5 0-9-3-10-7h27v-4C46 15 40 8 31 8Zm-11 15c1-4 5-7 10-7s8 3 8 7H20Z" fill="#8cc63f"/>
  <circle cx="48" cy="45" r="8" fill="#8cc63f"/>
  <path d="M44 45h8M48 41v8" stroke="#fff" stroke-width="2.5" stroke-linecap="round"/>
  <text x="32" y="59" text-anchor="middle" font-family="Arial,sans-serif" font-size="8" font-weight="700" fill="#5b8d22">9mobile</text>
</svg>
